<svg width="19" height="20" viewBox="0 0 19 20" fill="none" xmlns="http://www.w3.org/2000/svg">
<path d="M9.5 6.83333V10M9.5 13.1667H9.50792M16.625 10C16.625 10.9357 16.4407 11.8622 16.0826 12.7266C15.7246 13.5911 15.1998 14.3765 14.5381 15.0381C13.8765 15.6998 13.0911 16.2246 12.2266 16.5826C11.3622 16.9407 10.4357 17.125 9.5 17.125C8.56433 17.125 7.63783 16.9407 6.77338 16.5826C5.90894 16.2246 5.12348 15.6998 4.46186 15.0381C3.80025 14.3765 3.27542 13.5911 2.91736 12.7266C2.55929 11.8622 2.375 10.9357 2.375 10C2.375 8.11033 3.12567 6.29806 4.46186 4.96186C5.79806 3.62567 7.61033 2.875 9.5 2.875C11.3897 2.875 13.2019 3.62567 14.5381 4.96186C15.8743 6.29806 16.625 8.11033 16.625 10Z" stroke="#6B7280" stroke-width="1.5" stroke-linecap="round" stroke-linejoin="round"/>
</svg>
